<svg xmlns="http://www.w3.org/2000/svg" xmlns:xlink="http://www.w3.org/1999/xlink" width="500" zoomAndPan="magnify" viewBox="0 0 375 374.999991" height="500" preserveAspectRatio="xMidYMid meet" version="1.0"><defs><g/><clipPath id="a57b455783"><path d="M 126.054688 81.472656 L 249.054688 81.472656 L 249.054688 232.222656 L 126.054688 232.222656 Z M 126.054688 81.472656 " clip-rule="nonzero"/></clipPath><clipPath id="2e64fa1e72"><path d="M 232.523438 135.570312 C 222.6875 133.191406 212.082031 140.683594 204.929688 146.820312 C 204.929688 146.820312 202.285156 139.066406 198.476562 132.722656 C 190.363281 119.226562 178.929688 104.921875 171.554688 81.476562 C 171.554688 81.476562 157.664062 119.496094 162.632812 136.785156 C 167.375 153.289062 176.753906 157.703125 186.375 165.734375 C 186.375 165.734375 172.046875 199.933594 126.0625 199.976562 C 126.0625 199.976562 136.21875 202.554688 149.0625 200.515625 C 141.425781 206.089844 135.351562 215.542969 133.082031 232.21875 C 133.082031 232.21875 139.925781 199.46875 171.96875 198.398438 C 204.691406 197.304688 214.125 170.386719 214.125 170.386719 C 214.125 170.386719 202.945312 187.921875 182.535156 190.988281 C 178.605469 191.578125 174.324219 192.027344 169.96875 192.75 C 178.6875 187.203125 186.9375 178.25 192.761719 164.019531 C 192.761719 164.019531 183.796875 159.171875 176.894531 151.445312 C 163.230469 136.148438 169.433594 115.449219 172.785156 101.890625 C 172.785156 101.890625 176.714844 116.152344 191.175781 133.554688 C 204.007812 148.996094 203.816406 155.503906 203.816406 155.503906 C 203.816406 155.503906 228.820312 126.472656 240.59375 148.589844 C 240.59375 148.589844 228.714844 148.492188 223.550781 166.714844 C 221.347656 174.484375 221.582031 186.617188 209.578125 194.851562 C 234.242188 186 221.6875 160.96875 237.761719 153.832031 C 244.15625 150.996094 249.0625 158.207031 249.0625 158.207031 C 249.0625 158.207031 248.175781 139.351562 232.523438 135.570312 Z M 232.523438 135.570312 " clip-rule="nonzero"/></clipPath><clipPath id="5db6116695"><path d="M 232.523438 135.570312 C 222.6875 133.191406 212.082031 140.683594 204.929688 146.820312 C 204.929688 146.820312 202.285156 139.066406 198.476562 132.722656 C 190.363281 119.226562 178.929688 104.921875 171.554688 81.476562 C 171.554688 81.476562 157.664062 119.496094 162.632812 136.785156 C 167.375 153.289062 176.753906 157.703125 186.375 165.734375 C 186.375 165.734375 172.046875 199.933594 126.0625 199.976562 C 126.0625 199.976562 136.21875 202.554688 149.0625 200.515625 C 141.425781 206.089844 135.351562 215.542969 133.082031 232.21875 C 133.082031 232.21875 139.925781 199.46875 171.96875 198.398438 C 204.691406 197.304688 214.125 170.386719 214.125 170.386719 C 214.125 170.386719 202.945312 187.921875 182.535156 190.988281 C 178.605469 191.578125 174.324219 192.027344 169.96875 192.75 C 178.6875 187.203125 186.9375 178.25 192.761719 164.019531 C 192.761719 164.019531 183.796875 159.171875 176.894531 151.445312 C 163.230469 136.148438 169.433594 115.449219 172.785156 101.890625 C 172.785156 101.890625 176.714844 116.152344 191.175781 133.554688 C 204.007812 148.996094 203.816406 155.503906 203.816406 155.503906 C 203.816406 155.503906 228.820312 126.472656 240.59375 148.589844 C 240.59375 148.589844 228.714844 148.492188 223.550781 166.714844 C 221.347656 174.484375 221.582031 186.617188 209.578125 194.851562 C 234.242188 186 221.6875 160.96875 237.761719 153.832031 C 244.15625 150.996094 249.0625 158.207031 249.0625 158.207031 C 249.0625 158.207031 248.175781 139.351562 232.523438 135.570312 " clip-rule="nonzero"/></clipPath><clipPath id="74ae8d6f32"><path d="M 319.710938 183.039062 L 208.933594 23.789062 L 55.414062 130.65625 L 166.191406 289.910156 Z M 319.710938 183.039062 " clip-rule="nonzero"/></clipPath><radialGradient gradientTransform="matrix(-0.820669, 0.571292, -0.571081, -0.820972, 243.828369, 137.820567)" gradientUnits="userSpaceOnUse" r="114.620448" cx="0" id="18862a0c16" cy="0" fx="0" fy="0"><stop stop-opacity="1" stop-color="rgb(31.604004%, 67.652893%, 89.7995%)" offset="0"/><stop stop-opacity="1" stop-color="rgb(31.404114%, 67.501831%, 89.608765%)" offset="0.00390625"/><stop stop-opacity="1" stop-color="rgb(31.399536%, 67.312622%, 89.408875%)" offset="0.0078125"/><stop stop-opacity="1" stop-color="rgb(31.217957%, 67.112732%, 89.399719%)" offset="0.0117188"/><stop stop-opacity="1" stop-color="rgb(31.018066%, 66.921997%, 89.222717%)" offset="0.015625"/><stop stop-opacity="1" stop-color="rgb(30.999756%, 66.522217%, 88.999939%)" offset="0.0195312"/><stop stop-opacity="1" stop-color="rgb(30.999756%, 66.281128%, 88.777161%)" offset="0.0234375"/><stop stop-opacity="1" stop-color="rgb(30.999756%, 66.069031%, 88.586426%)" offset="0.0273438"/><stop stop-opacity="1" stop-color="rgb(30.990601%, 65.686035%, 88.386536%)" offset="0.03125"/><stop stop-opacity="1" stop-color="rgb(30.79071%, 65.4953%, 88.198853%)" offset="0.0351562"/><stop stop-opacity="1" stop-color="rgb(30.599976%, 65.296936%, 88.198853%)" offset="0.0390625"/><stop stop-opacity="1" stop-color="rgb(30.599976%, 65.100098%, 88.005066%)" offset="0.0429688"/><stop stop-opacity="1" stop-color="rgb(30.599976%, 64.909363%, 87.805176%)" offset="0.046875"/><stop stop-opacity="1" stop-color="rgb(30.599976%, 64.709473%, 87.799072%)" offset="0.0507812"/><stop stop-opacity="1" stop-color="rgb(30.599976%, 64.518738%, 87.663269%)" offset="0.0546875"/><stop stop-opacity="1" stop-color="rgb(30.4245%, 64.318848%, 87.513733%)" offset="0.0585938"/><stop stop-opacity="1" stop-color="rgb(30.223083%, 64.099121%, 87.478638%)" offset="0.0625"/><stop stop-opacity="1" stop-color="rgb(30.183411%, 63.883972%, 87.278748%)" offset="0.0664062"/><stop stop-opacity="1" stop-color="rgb(29.983521%, 63.673401%, 87.098694%)" offset="0.0703125"/><stop stop-opacity="1" stop-color="rgb(29.798889%, 63.288879%, 87.09259%)" offset="0.0742188"/><stop stop-opacity="1" stop-color="rgb(29.798889%, 63.098145%, 86.8927%)" offset="0.078125"/><stop stop-opacity="1" stop-color="rgb(29.798889%, 62.901306%, 86.698914%)" offset="0.0820312"/><stop stop-opacity="1" stop-color="rgb(29.798889%, 62.557983%, 86.698914%)" offset="0.0859375"/><stop stop-opacity="1" stop-color="rgb(29.611206%, 62.405396%, 86.51123%)" offset="0.0898438"/><stop stop-opacity="1" stop-color="rgb(29.411316%, 62.216187%, 86.31134%)" offset="0.09375"/><stop stop-opacity="1" stop-color="rgb(29.399109%, 62.016296%, 86.299133%)" offset="0.0976562"/><stop stop-opacity="1" stop-color="rgb(29.399109%, 61.799622%, 86.099243%)" offset="0.101562"/><stop stop-opacity="1" stop-color="rgb(29.399109%, 61.579895%, 85.899353%)" offset="0.105469"/><stop stop-opacity="1" stop-color="rgb(29.399109%, 61.380005%, 85.884094%)" offset="0.109375"/><stop stop-opacity="1" stop-color="rgb(29.389954%, 61.18927%, 85.684204%)" offset="0.113281"/><stop stop-opacity="1" stop-color="rgb(29.190063%, 60.98938%, 85.494995%)" offset="0.117188"/><stop stop-opacity="1" stop-color="rgb(28.999329%, 60.798645%, 85.295105%)" offset="0.121094"/><stop stop-opacity="1" stop-color="rgb(28.999329%, 60.603333%, 85.099792%)" offset="0.125"/><stop stop-opacity="1" stop-color="rgb(28.999329%, 60.403442%, 85.099792%)" offset="0.128906"/><stop stop-opacity="1" stop-color="rgb(28.999329%, 60.212708%, 84.913635%)" offset="0.132812"/><stop stop-opacity="1" stop-color="rgb(28.999329%, 60.012817%, 84.712219%)" offset="0.136719"/><stop stop-opacity="1" stop-color="rgb(28.822327%, 59.822083%, 84.698486%)" offset="0.140625"/><stop stop-opacity="1" stop-color="rgb(28.622437%, 59.422302%, 84.498596%)" offset="0.144531"/><stop stop-opacity="1" stop-color="rgb(28.581238%, 59.181213%, 84.281921%)" offset="0.148438"/><stop stop-opacity="1" stop-color="rgb(28.381348%, 58.969116%, 84.082031%)" offset="0.152344"/><stop stop-opacity="1" stop-color="rgb(28.199768%, 58.586121%, 83.898926%)" offset="0.15625"/><stop stop-opacity="1" stop-color="rgb(28.199768%, 58.395386%, 83.898926%)" offset="0.160156"/><stop stop-opacity="1" stop-color="rgb(28.199768%, 58.197021%, 83.898926%)" offset="0.164062"/><stop stop-opacity="1" stop-color="rgb(28.199768%, 58.000183%, 83.705139%)" offset="0.167969"/><stop stop-opacity="1" stop-color="rgb(28.199768%, 57.809448%, 83.505249%)" offset="0.171875"/><stop stop-opacity="1" stop-color="rgb(28.015137%, 57.609558%, 83.499146%)" offset="0.175781"/><stop stop-opacity="1" stop-color="rgb(27.815247%, 57.4646%, 83.319092%)" offset="0.179688"/><stop stop-opacity="1" stop-color="rgb(27.799988%, 57.315063%, 83.119202%)" offset="0.183594"/><stop stop-opacity="1" stop-color="rgb(27.799988%, 57.098389%, 83.078003%)" offset="0.1875"/><stop stop-opacity="1" stop-color="rgb(27.799988%, 56.898499%, 82.878113%)" offset="0.191406"/><stop stop-opacity="1" stop-color="rgb(27.799988%, 56.887817%, 82.69043%)" offset="0.195312"/><stop stop-opacity="1" stop-color="rgb(27.799988%, 56.681824%, 82.540894%)" offset="0.199219"/><stop stop-opacity="1" stop-color="rgb(27.798462%, 56.292725%, 82.398987%)" offset="0.203125"/><stop stop-opacity="1" stop-color="rgb(27.650452%, 56.098938%, 82.398987%)" offset="0.207031"/><stop stop-opacity="1" stop-color="rgb(27.500916%, 55.906677%, 82.206726%)" offset="0.210938"/><stop stop-opacity="1" stop-color="rgb(27.49939%, 55.706787%, 82.006836%)" offset="0.214844"/><stop stop-opacity="1" stop-color="rgb(27.49939%, 55.516052%, 81.816101%)" offset="0.21875"/><stop stop-opacity="1" stop-color="rgb(27.49939%, 55.137634%, 81.616211%)" offset="0.222656"/><stop stop-opacity="1" stop-color="rgb(27.2995%, 54.896545%, 81.599426%)" offset="0.226562"/><stop stop-opacity="1" stop-color="rgb(27.099609%, 54.675293%, 81.57959%)" offset="0.230469"/><stop stop-opacity="1" stop-color="rgb(27.084351%, 54.484558%, 81.3797%)" offset="0.234375"/><stop stop-opacity="1" stop-color="rgb(26.88446%, 54.284668%, 81.199646%)" offset="0.238281"/><stop stop-opacity="1" stop-color="rgb(26.699829%, 54.093933%, 81.195068%)" offset="0.242188"/><stop stop-opacity="1" stop-color="rgb(26.699829%, 53.894043%, 80.995178%)" offset="0.246094"/><stop stop-opacity="1" stop-color="rgb(26.699829%, 53.69873%, 80.799866%)" offset="0.25"/><stop stop-opacity="1" stop-color="rgb(26.699829%, 53.507996%, 80.799866%)" offset="0.253906"/><stop stop-opacity="1" stop-color="rgb(26.699829%, 53.308105%, 80.618286%)" offset="0.257812"/><stop stop-opacity="1" stop-color="rgb(26.699829%, 53.121948%, 80.41687%)" offset="0.265625"/><stop stop-opacity="1" stop-color="rgb(26.498413%, 52.722168%, 80.198669%)" offset="0.269531"/><stop stop-opacity="1" stop-color="rgb(26.298523%, 52.485657%, 79.981995%)" offset="0.273438"/><stop stop-opacity="1" stop-color="rgb(26.298523%, 52.328491%, 79.782104%)" offset="0.277344"/><stop stop-opacity="1" stop-color="rgb(26.295471%, 51.991272%, 79.595947%)" offset="0.285156"/><stop stop-opacity="1" stop-color="rgb(26.097107%, 51.799011%, 79.397583%)" offset="0.289062"/><stop stop-opacity="1" stop-color="rgb(25.900269%, 51.605225%, 79.200745%)" offset="0.292969"/><stop stop-opacity="1" stop-color="rgb(25.898743%, 51.220703%, 79.014587%)" offset="0.296875"/><stop stop-opacity="1" stop-color="rgb(25.718689%, 51.014709%, 78.814697%)" offset="0.304688"/><stop stop-opacity="1" stop-color="rgb(25.518799%, 50.823975%, 78.799438%)" offset="0.308594"/><stop stop-opacity="1" stop-color="rgb(25.498962%, 50.602722%, 78.778076%)" offset="0.3125"/><stop stop-opacity="1" stop-color="rgb(25.498962%, 50.367737%, 78.578186%)" offset="0.316406"/><stop stop-opacity="1" stop-color="rgb(25.498962%, 49.987793%, 78.393555%)" offset="0.324219"/><stop stop-opacity="1" stop-color="rgb(25.498962%, 49.797058%, 78.193665%)" offset="0.328125"/><stop stop-opacity="1" stop-color="rgb(25.498962%, 49.60022%, 77.999878%)" offset="0.332031"/><stop stop-opacity="1" stop-color="rgb(25.306702%, 49.401855%, 77.999878%)" offset="0.335938"/><stop stop-opacity="1" stop-color="rgb(25.106812%, 49.211121%, 77.999878%)" offset="0.339844"/><stop stop-opacity="1" stop-color="rgb(25.099182%, 49.01123%, 77.816772%)" offset="0.34375"/><stop stop-opacity="1" stop-color="rgb(25.099182%, 48.820496%, 77.615356%)" offset="0.347656"/><stop stop-opacity="1" stop-color="rgb(25.099182%, 48.597717%, 77.449036%)" offset="0.351562"/><stop stop-opacity="1" stop-color="rgb(25.099182%, 48.374939%, 77.279663%)" offset="0.355469"/><stop stop-opacity="1" stop-color="rgb(25.099182%, 48.184204%, 77.079773%)" offset="0.359375"/><stop stop-opacity="1" stop-color="rgb(25.090027%, 47.984314%, 76.899719%)" offset="0.363281"/><stop stop-opacity="1" stop-color="rgb(24.890137%, 47.795105%, 76.895142%)" offset="0.367188"/><stop stop-opacity="1" stop-color="rgb(24.699402%, 47.645569%, 76.695251%)" offset="0.371094"/><stop stop-opacity="1" stop-color="rgb(24.508667%, 47.30835%, 76.499939%)" offset="0.378906"/><stop stop-opacity="1" stop-color="rgb(24.308777%, 46.92688%, 76.318359%)" offset="0.382812"/><stop stop-opacity="1" stop-color="rgb(24.299622%, 46.717834%, 76.116943%)" offset="0.390625"/><stop stop-opacity="1" stop-color="rgb(24.299622%, 46.499634%, 76.077271%)" offset="0.394531"/><stop stop-opacity="1" stop-color="rgb(24.299622%, 46.286011%, 75.87738%)" offset="0.398438"/><stop stop-opacity="1" stop-color="rgb(24.299622%, 46.086121%, 75.691223%)" offset="0.40625"/><stop stop-opacity="1" stop-color="rgb(24.29657%, 45.895386%, 75.491333%)" offset="0.410156"/><stop stop-opacity="1" stop-color="rgb(24.098206%, 45.697021%, 75.299072%)" offset="0.414062"/><stop stop-opacity="1" stop-color="rgb(23.901367%, 45.306396%, 75.299072%)" offset="0.417969"/><stop stop-opacity="1" stop-color="rgb(23.899841%, 45.10498%, 75.109863%)" offset="0.421875"/><stop stop-opacity="1" stop-color="rgb(23.899841%, 44.914246%, 74.909973%)" offset="0.425781"/><stop stop-opacity="1" stop-color="rgb(23.899841%, 44.540405%, 74.723816%)" offset="0.429688"/><stop stop-opacity="1" stop-color="rgb(23.899841%, 44.32373%, 74.504089%)" offset="0.4375"/><stop stop-opacity="1" stop-color="rgb(23.883057%, 44.282532%, 74.278259%)" offset="0.441406"/><stop stop-opacity="1" stop-color="rgb(23.683167%, 44.076538%, 74.099731%)" offset="0.445312"/><stop stop-opacity="1" stop-color="rgb(23.497009%, 43.693542%, 74.098206%)" offset="0.453125"/><stop stop-opacity="1" stop-color="rgb(23.300171%, 43.499756%, 73.901367%)" offset="0.457031"/><stop stop-opacity="1" stop-color="rgb(23.101807%, 43.307495%, 73.703003%)" offset="0.460938"/><stop stop-opacity="1" stop-color="rgb(23.098755%, 43.107605%, 73.516846%)" offset="0.464844"/><stop stop-opacity="1" stop-color="rgb(23.098755%, 42.921448%, 73.31543%)" offset="0.472656"/><stop stop-opacity="1" stop-color="rgb(23.098755%, 42.570496%, 73.275757%)" offset="0.476562"/><stop stop-opacity="1" stop-color="rgb(23.098755%, 42.379761%, 73.075867%)" offset="0.480469"/><stop stop-opacity="1" stop-color="rgb(23.098755%, 42.170715%, 72.889709%)" offset="0.484375"/><stop stop-opacity="1" stop-color="rgb(23.094177%, 41.789246%, 72.689819%)" offset="0.492188"/><stop stop-opacity="1" stop-color="rgb(22.894287%, 41.598511%, 72.499084%)" offset="0.496094"/><stop stop-opacity="1" stop-color="rgb(22.698975%, 41.407776%, 72.499084%)" offset="0.503906"/><stop stop-opacity="1" stop-color="rgb(22.698975%, 41.207886%, 72.358704%)" offset="0.507812"/><stop stop-opacity="1" stop-color="rgb(22.698975%, 41.017151%, 72.209167%)" offset="0.511719"/><stop stop-opacity="1" stop-color="rgb(22.566223%, 40.817261%, 72.021484%)" offset="0.515625"/><stop stop-opacity="1" stop-color="rgb(22.416687%, 40.59906%, 71.821594%)" offset="0.519531"/><stop stop-opacity="1" stop-color="rgb(22.399902%, 40.39917%, 71.781921%)" offset="0.523438"/><stop stop-opacity="1" stop-color="rgb(22.399902%, 40.386963%, 71.582031%)" offset="0.527344"/><stop stop-opacity="1" stop-color="rgb(22.399902%, 40.187073%, 71.398926%)" offset="0.53125"/><stop stop-opacity="1" stop-color="rgb(22.399902%, 39.996338%, 71.398926%)" offset="0.535156"/><stop stop-opacity="1" stop-color="rgb(22.399902%, 39.797974%, 71.398926%)" offset="0.539062"/><stop stop-opacity="1" stop-color="rgb(22.206116%, 39.601135%, 71.205139%)" offset="0.542969"/><stop stop-opacity="1" stop-color="rgb(22.0047%, 39.4104%, 71.005249%)" offset="0.546875"/><stop stop-opacity="1" stop-color="rgb(21.998596%, 39.21051%, 70.814514%)" offset="0.550781"/><stop stop-opacity="1" stop-color="rgb(21.998596%, 39.019775%, 70.614624%)" offset="0.554688"/><stop stop-opacity="1" stop-color="rgb(21.998596%, 38.818359%, 70.599365%)" offset="0.558594"/><stop stop-opacity="1" stop-color="rgb(21.998596%, 38.598633%, 70.578003%)" offset="0.5625"/><stop stop-opacity="1" stop-color="rgb(21.998596%, 38.383484%, 70.378113%)" offset="0.566406"/><stop stop-opacity="1" stop-color="rgb(21.99707%, 38.182068%, 70.198059%)" offset="0.570312"/><stop stop-opacity="1" stop-color="rgb(21.800232%, 37.800598%, 70.001221%)" offset="0.582031"/><stop stop-opacity="1" stop-color="rgb(21.601868%, 37.451172%, 69.619751%)" offset="0.585938"/><stop stop-opacity="1" stop-color="rgb(21.420288%, 37.298584%, 69.415283%)" offset="0.597656"/><stop stop-opacity="1" stop-color="rgb(21.220398%, 37.098694%, 69.198608%)" offset="0.601562"/><stop stop-opacity="1" stop-color="rgb(21.199036%, 36.880493%, 68.998718%)" offset="0.605469"/><stop stop-opacity="1" stop-color="rgb(21.199036%, 36.680603%, 68.984985%)" offset="0.609375"/><stop stop-opacity="1" stop-color="rgb(21.199036%, 36.489868%, 68.785095%)" offset="0.613281"/><stop stop-opacity="1" stop-color="rgb(21.199036%, 36.289978%, 68.598938%)" offset="0.617188"/><stop stop-opacity="1" stop-color="rgb(21.199036%, 36.099243%, 68.598938%)" offset="0.621094"/><stop stop-opacity="1" stop-color="rgb(21.199036%, 35.903931%, 68.403625%)" offset="0.625"/><stop stop-opacity="1" stop-color="rgb(21.199036%, 35.704041%, 68.203735%)" offset="0.628906"/><stop stop-opacity="1" stop-color="rgb(21.199036%, 35.517883%, 68.199158%)" offset="0.636719"/><stop stop-opacity="1" stop-color="rgb(21.022034%, 35.317993%, 68.022156%)" offset="0.640625"/><stop stop-opacity="1" stop-color="rgb(20.822144%, 35.099792%, 67.822266%)" offset="0.644531"/><stop stop-opacity="1" stop-color="rgb(20.799255%, 34.886169%, 67.790222%)" offset="0.648438"/><stop stop-opacity="1" stop-color="rgb(20.799255%, 34.683228%, 67.63916%)" offset="0.65625"/><stop stop-opacity="1" stop-color="rgb(20.799255%, 34.29718%, 67.498779%)" offset="0.664062"/><stop stop-opacity="1" stop-color="rgb(20.605469%, 34.100342%, 67.304993%)" offset="0.667969"/><stop stop-opacity="1" stop-color="rgb(20.405579%, 33.914185%, 67.105103%)" offset="0.671875"/><stop stop-opacity="1" stop-color="rgb(20.399475%, 33.714294%, 66.918945%)" offset="0.679688"/><stop stop-opacity="1" stop-color="rgb(20.399475%, 33.52356%, 66.719055%)" offset="0.683594"/><stop stop-opacity="1" stop-color="rgb(20.399475%, 33.303833%, 66.499329%)" offset="0.6875"/><stop stop-opacity="1" stop-color="rgb(20.399475%, 33.067322%, 66.299438%)" offset="0.691406"/><stop stop-opacity="1" stop-color="rgb(20.393372%, 32.688904%, 66.293335%)" offset="0.699219"/><stop stop-opacity="1" stop-color="rgb(20.193481%, 32.348633%, 66.093445%)" offset="0.703125"/><stop stop-opacity="1" stop-color="rgb(19.999695%, 32.199097%, 65.716553%)" offset="0.71875"/><stop stop-opacity="1" stop-color="rgb(19.999695%, 32.020569%, 65.516663%)" offset="0.722656"/><stop stop-opacity="1" stop-color="rgb(19.999695%, 31.797791%, 65.475464%)" offset="0.726562"/><stop stop-opacity="1" stop-color="rgb(19.979858%, 31.575012%, 65.275574%)" offset="0.730469"/><stop stop-opacity="1" stop-color="rgb(19.779968%, 31.390381%, 65.089417%)" offset="0.734375"/><stop stop-opacity="1" stop-color="rgb(19.599915%, 31.190491%, 64.889526%)" offset="0.742188"/><stop stop-opacity="1" stop-color="rgb(19.599915%, 30.804443%, 64.503479%)" offset="0.75"/><stop stop-opacity="1" stop-color="rgb(19.599915%, 30.604553%, 64.303589%)" offset="0.753906"/><stop stop-opacity="1" stop-color="rgb(19.599915%, 30.413818%, 64.299011%)" offset="0.757812"/><stop stop-opacity="1" stop-color="rgb(19.599915%, 30.212402%, 64.299011%)" offset="0.761719"/><stop stop-opacity="1" stop-color="rgb(19.599915%, 30.198669%, 64.122009%)" offset="0.765625"/><stop stop-opacity="1" stop-color="rgb(19.398499%, 29.998779%, 63.922119%)" offset="0.769531"/><stop stop-opacity="1" stop-color="rgb(19.198608%, 29.798889%, 63.899231%)" offset="0.773438"/><stop stop-opacity="1" stop-color="rgb(19.198608%, 29.786682%, 63.887024%)" offset="0.777344"/><stop stop-opacity="1" stop-color="rgb(19.198608%, 29.586792%, 63.687134%)" offset="0.78125"/><stop stop-opacity="1" stop-color="rgb(19.198608%, 29.396057%, 63.499451%)" offset="0.785156"/><stop stop-opacity="1" stop-color="rgb(19.198608%, 29.197693%, 63.499451%)" offset="0.789062"/><stop stop-opacity="1" stop-color="rgb(19.198608%, 29.000854%, 63.305664%)" offset="0.792969"/><stop stop-opacity="1" stop-color="rgb(19.198608%, 28.999329%, 63.105774%)" offset="0.796875"/><stop stop-opacity="1" stop-color="rgb(19.198608%, 28.814697%, 63.09967%)" offset="0.800781"/><stop stop-opacity="1" stop-color="rgb(19.198608%, 28.614807%, 63.09967%)" offset="0.804688"/><stop stop-opacity="1" stop-color="rgb(19.198608%, 28.599548%, 62.924194%)" offset="0.808594"/><stop stop-opacity="1" stop-color="rgb(18.998718%, 28.399658%, 62.709045%)" offset="0.8125"/><stop stop-opacity="1" stop-color="rgb(18.798828%, 28.182983%, 62.533569%)" offset="0.816406"/><stop stop-opacity="1" stop-color="rgb(18.798828%, 27.978516%, 62.393188%)" offset="0.820312"/><stop stop-opacity="1" stop-color="rgb(18.798828%, 27.644348%, 62.193298%)" offset="0.828125"/><stop stop-opacity="1" stop-color="rgb(18.798828%, 27.311707%, 61.999512%)" offset="0.835938"/><stop stop-opacity="1" stop-color="rgb(18.615723%, 27.111816%, 61.816406%)" offset="0.84375"/><stop stop-opacity="1" stop-color="rgb(18.415833%, 27.099609%, 61.616516%)" offset="0.847656"/><stop stop-opacity="1" stop-color="rgb(18.399048%, 26.899719%, 61.599731%)" offset="0.851562"/><stop stop-opacity="1" stop-color="rgb(18.399048%, 26.699829%, 61.579895%)" offset="0.855469"/><stop stop-opacity="1" stop-color="rgb(18.399048%, 26.68457%, 61.380005%)" offset="0.859375"/><stop stop-opacity="1" stop-color="rgb(18.399048%, 26.48468%, 61.193848%)" offset="0.863281"/><stop stop-opacity="1" stop-color="rgb(18.399048%, 26.10321%, 60.993958%)" offset="0.871094"/><stop stop-opacity="1" stop-color="rgb(18.399048%, 25.90332%, 60.798645%)" offset="0.878906"/><stop stop-opacity="1" stop-color="rgb(18.399048%, 25.712585%, 60.612488%)" offset="0.882812"/><stop stop-opacity="1" stop-color="rgb(18.399048%, 25.512695%, 60.412598%)" offset="0.886719"/><stop stop-opacity="1" stop-color="rgb(18.399048%, 25.498962%, 60.398865%)" offset="0.890625"/><stop stop-opacity="1" stop-color="rgb(18.199158%, 25.299072%, 60.198975%)" offset="0.894531"/><stop stop-opacity="1" stop-color="rgb(17.999268%, 25.099182%, 59.999084%)" offset="0.898438"/><stop stop-opacity="1" stop-color="rgb(17.999268%, 25.086975%, 59.986877%)" offset="0.902344"/><stop stop-opacity="1" stop-color="rgb(17.999268%, 24.887085%, 59.786987%)" offset="0.90625"/><stop stop-opacity="1" stop-color="rgb(17.999268%, 24.505615%, 59.599304%)" offset="0.917969"/><stop stop-opacity="1" stop-color="rgb(17.999268%, 24.305725%, 59.410095%)" offset="0.921875"/><stop stop-opacity="1" stop-color="rgb(17.999268%, 24.119568%, 59.210205%)" offset="0.925781"/><stop stop-opacity="1" stop-color="rgb(17.823792%, 23.919678%, 59.199524%)" offset="0.933594"/><stop stop-opacity="1" stop-color="rgb(17.623901%, 23.698425%, 58.999634%)" offset="0.9375"/><stop stop-opacity="1" stop-color="rgb(17.599487%, 23.483276%, 58.799744%)" offset="0.941406"/><stop stop-opacity="1" stop-color="rgb(17.599487%, 23.283386%, 58.787537%)" offset="0.945312"/><stop stop-opacity="1" stop-color="rgb(17.599487%, 23.098755%, 58.587646%)" offset="0.949219"/><stop stop-opacity="1" stop-color="rgb(17.599487%, 22.906494%, 58.399963%)" offset="0.960938"/><stop stop-opacity="1" stop-color="rgb(17.459106%, 22.706604%, 58.21228%)" offset="0.964844"/><stop stop-opacity="1" stop-color="rgb(17.308044%, 22.564697%, 58.010864%)" offset="0.96875"/><stop stop-opacity="1" stop-color="rgb(17.298889%, 22.415161%, 57.798767%)" offset="0.976562"/><stop stop-opacity="1" stop-color="rgb(17.298889%, 22.380066%, 57.598877%)" offset="0.980469"/><stop stop-opacity="1" stop-color="rgb(17.298889%, 22.180176%, 57.449341%)" offset="0.984375"/><stop stop-opacity="1" stop-color="rgb(17.298889%, 21.998596%, 57.299805%)" offset="1"/></radialGradient></defs><g clip-path="url(#a57b455783)"><g clip-path="url(#2e64fa1e72)"><g clip-path="url(#5db6116695)"><g clip-path="url(#74ae8d6f32)"><path fill="url(#18862a0c16)" d="M 319.703125 183.039062 L 208.929688 23.792969 L 55.414062 130.65625 L 166.1875 289.90625 Z M 319.703125 183.039062 " fill-rule="nonzero"/></g></g></g></g><g fill="#13294a" fill-opacity="1"><g transform="translate(81.281632, 270.026437)"><g><path d="M 22.046875 0 L 11.6875 0 L 11.6875 -0.796875 L 12.703125 -0.890625 C 13.253906 -0.910156 13.644531 -1 13.875 -1.15625 C 14.113281 -1.320312 14.234375 -1.585938 14.234375 -1.953125 C 14.234375 -2.566406 13.742188 -4.015625 12.765625 -6.296875 L 5.5625 -6.296875 L 5.09375 -5.03125 C 4.46875 -3.488281 4.15625 -2.515625 4.15625 -2.109375 C 4.15625 -1.703125 4.359375 -1.394531 4.765625 -1.1875 C 5.171875 -0.988281 5.84375 -0.859375 6.78125 -0.796875 L 6.78125 0 L 0.28125 0 L 0.28125 -0.796875 C 1.050781 -0.953125 1.617188 -1.238281 1.984375 -1.65625 C 2.347656 -2.082031 2.828125 -3.046875 3.421875 -4.546875 L 10.53125 -22.078125 L 11.421875 -22.078125 L 18.5625 -5.25 C 19.414062 -3.238281 20.03125 -1.992188 20.40625 -1.515625 C 20.789062 -1.035156 21.335938 -0.796875 22.046875 -0.796875 Z M 12.28125 -7.546875 L 9.0625 -15.328125 L 6.046875 -7.546875 Z M 12.28125 -7.546875 "/></g></g></g><g fill="#13294a" fill-opacity="1"><g transform="translate(106.939954, 270.026437)"><g><path d="M 24.15625 -8.390625 C 22.96875 -8.253906 22.210938 -8.015625 21.890625 -7.671875 C 21.566406 -7.335938 21.40625 -6.59375 21.40625 -5.4375 L 21.40625 -1.375 C 20.382812 -0.78125 19.070312 -0.300781 17.46875 0.0625 C 15.875 0.425781 14.242188 0.609375 12.578125 0.609375 C 9.222656 0.609375 6.484375 -0.425781 4.359375 -2.5 C 2.242188 -4.582031 1.1875 -7.28125 1.1875 -10.59375 C 1.1875 -13.875 2.242188 -16.613281 4.359375 -18.8125 C 6.484375 -21.007812 9.132812 -22.109375 12.3125 -22.109375 C 13.789062 -22.109375 15.445312 -21.734375 17.28125 -20.984375 C 17.9375 -20.691406 18.425781 -20.546875 18.75 -20.546875 C 19.050781 -20.546875 19.304688 -20.648438 19.515625 -20.859375 C 19.734375 -21.078125 19.945312 -21.460938 20.15625 -22.015625 L 21.03125 -22.015625 L 21.03125 -14.53125 L 20.21875 -14.53125 C 19.664062 -15.75 19.160156 -16.691406 18.703125 -17.359375 C 18.242188 -18.035156 17.671875 -18.671875 16.984375 -19.265625 C 15.597656 -20.460938 14.179688 -21.0625 12.734375 -21.0625 C 10.796875 -21.0625 9.328125 -20.191406 8.328125 -18.453125 C 7.335938 -16.710938 6.84375 -14.164062 6.84375 -10.8125 C 6.84375 -7 7.535156 -4.207031 8.921875 -2.4375 C 9.953125 -1.113281 11.425781 -0.453125 13.34375 -0.453125 C 14.40625 -0.453125 15.179688 -0.632812 15.671875 -1 C 16.171875 -1.375 16.421875 -1.96875 16.421875 -2.78125 L 16.421875 -6.140625 C 16.421875 -7.015625 16.222656 -7.582031 15.828125 -7.84375 C 15.429688 -8.113281 14.550781 -8.296875 13.1875 -8.390625 L 13.1875 -9.1875 L 24.15625 -9.1875 Z M 24.15625 -8.390625 "/></g></g></g><g fill="#13294a" fill-opacity="1"><g transform="translate(134.389836, 270.026437)"><g><path d="M 22.875 0 L 16.3125 0 L 9.703125 -10.015625 L 8.828125 -10.015625 L 8.828125 -3.75 C 8.828125 -2.613281 8.988281 -1.875 9.3125 -1.53125 C 9.632812 -1.195312 10.410156 -0.953125 11.640625 -0.796875 L 11.640625 0 L 0.828125 0 L 0.828125 -0.796875 C 2.085938 -0.953125 2.867188 -1.1875 3.171875 -1.5 C 3.484375 -1.820312 3.640625 -2.570312 3.640625 -3.75 L 3.640625 -17.890625 C 3.640625 -19.035156 3.460938 -19.789062 3.109375 -20.15625 C 2.765625 -20.519531 2.003906 -20.742188 0.828125 -20.828125 L 0.828125 -21.625 L 11.140625 -21.625 C 14.054688 -21.625 16.285156 -21.132812 17.828125 -20.15625 C 19.378906 -19.175781 20.15625 -17.769531 20.15625 -15.9375 C 20.15625 -14.445312 19.675781 -13.253906 18.71875 -12.359375 C 17.925781 -11.648438 16.734375 -11.039062 15.140625 -10.53125 L 21.5625 -1.40625 C 21.882812 -1 22.320312 -0.796875 22.875 -0.796875 Z M 14.6875 -15.8125 C 14.6875 -17.5 14.363281 -18.707031 13.71875 -19.4375 C 13.082031 -20.175781 12.03125 -20.546875 10.5625 -20.546875 C 9.75 -20.546875 9.25 -20.382812 9.0625 -20.0625 C 8.90625 -19.757812 8.828125 -19.472656 8.828125 -19.203125 L 8.828125 -11.046875 C 10.960938 -11.066406 12.414062 -11.332031 13.1875 -11.84375 C 14.1875 -12.5 14.6875 -13.820312 14.6875 -15.8125 Z M 14.6875 -15.8125 "/></g></g></g><g fill="#13294a" fill-opacity="1"><g transform="translate(160.048158, 270.026437)"><g><path d="M 11.84375 0 L 0.640625 0 L 0.640625 -0.796875 C 1.835938 -0.898438 2.628906 -1.101562 3.015625 -1.40625 C 3.410156 -1.707031 3.609375 -2.265625 3.609375 -3.078125 L 3.609375 -18.5625 C 3.609375 -19.375 3.398438 -19.929688 2.984375 -20.234375 C 2.578125 -20.546875 1.796875 -20.742188 0.640625 -20.828125 L 0.640625 -21.625 L 11.84375 -21.625 L 11.84375 -20.828125 C 10.664062 -20.785156 9.863281 -20.601562 9.4375 -20.28125 C 9.007812 -19.96875 8.796875 -19.394531 8.796875 -18.5625 L 8.796875 -3.078125 C 8.796875 -2.242188 9 -1.675781 9.40625 -1.375 C 9.8125 -1.070312 10.625 -0.878906 11.84375 -0.796875 Z M 11.84375 0 "/></g></g></g><g fill="#13294a" fill-opacity="1"><g transform="translate(175.053107, 270.026437)"><g><path d="M 9.1875 -5.46875 L 1.40625 -5.46875 L 1.40625 -9.1875 L 9.1875 -9.1875 Z M 9.1875 -5.46875 "/></g></g></g><g fill="#13294a" fill-opacity="1"><g transform="translate(188.266489, 270.026437)"><g><path d="M 18.65625 -15.203125 L 17.890625 -15.203125 C 17.503906 -16.953125 17.003906 -18.175781 16.390625 -18.875 C 15.398438 -19.988281 13.457031 -20.546875 10.5625 -20.546875 C 9.75 -20.546875 9.203125 -20.441406 8.921875 -20.234375 C 8.648438 -20.035156 8.515625 -19.640625 8.515625 -19.046875 L 8.515625 -11.609375 C 10.109375 -11.609375 11.242188 -11.941406 11.921875 -12.609375 C 12.609375 -13.285156 13.101562 -14.546875 13.40625 -16.390625 L 14.203125 -16.390625 L 14.203125 -5.5625 L 13.40625 -5.5625 C 13.195312 -7.425781 12.738281 -8.707031 12.03125 -9.40625 C 11.320312 -10.113281 10.148438 -10.488281 8.515625 -10.53125 L 8.515625 -3.078125 C 8.515625 -2.203125 8.734375 -1.617188 9.171875 -1.328125 C 9.609375 -1.035156 10.5625 -0.859375 12.03125 -0.796875 L 12.03125 0 L 0.515625 0 L 0.515625 -0.796875 C 1.703125 -0.921875 2.46875 -1.125 2.8125 -1.40625 C 3.15625 -1.6875 3.328125 -2.242188 3.328125 -3.078125 L 3.328125 -18.5625 C 3.328125 -19.394531 3.132812 -19.960938 2.75 -20.265625 C 2.363281 -20.578125 1.617188 -20.765625 0.515625 -20.828125 L 0.515625 -21.625 L 18.65625 -21.625 Z M 18.65625 -15.203125 "/></g></g></g><g fill="#13294a" fill-opacity="1"><g transform="translate(210.37368, 270.026437)"><g><path d="M 20.421875 -7.265625 L 19.109375 0 L 0.609375 0 L 0.609375 -0.796875 C 1.785156 -0.953125 2.535156 -1.164062 2.859375 -1.4375 C 3.191406 -1.71875 3.359375 -2.265625 3.359375 -3.078125 L 3.359375 -18.5625 C 3.359375 -19.375 3.171875 -19.9375 2.796875 -20.25 C 2.421875 -20.570312 1.691406 -20.765625 0.609375 -20.828125 L 0.609375 -21.625 L 11.78125 -21.625 L 11.78125 -20.828125 C 10.394531 -20.765625 9.507812 -20.554688 9.125 -20.203125 C 8.738281 -19.859375 8.546875 -19.085938 8.546875 -17.890625 L 8.546875 -2.78125 C 8.546875 -2.101562 8.71875 -1.632812 9.0625 -1.375 C 9.414062 -1.113281 10.085938 -0.984375 11.078125 -0.984375 C 13.503906 -0.984375 15.367188 -1.570312 16.671875 -2.75 C 17.222656 -3.257812 17.691406 -3.820312 18.078125 -4.4375 C 18.460938 -5.0625 18.929688 -6.003906 19.484375 -7.265625 Z M 20.421875 -7.265625 "/></g></g></g><g fill="#13294a" fill-opacity="1"><g transform="translate(234.272432, 270.026437)"><g><path d="M 23.78125 -10.75 C 23.78125 -7.445312 22.71875 -4.726562 20.59375 -2.59375 C 18.46875 -0.457031 15.75 0.609375 12.4375 0.609375 C 9.132812 0.609375 6.421875 -0.453125 4.296875 -2.578125 C 2.179688 -4.703125 1.125 -7.414062 1.125 -10.71875 C 1.125 -14.050781 2.191406 -16.78125 4.328125 -18.90625 C 6.472656 -21.039062 9.222656 -22.109375 12.578125 -22.109375 C 15.796875 -22.109375 18.46875 -21.03125 20.59375 -18.875 C 22.71875 -16.71875 23.78125 -14.007812 23.78125 -10.75 Z M 18.109375 -10.53125 C 18.109375 -13.851562 17.625 -16.4375 16.65625 -18.28125 C 15.6875 -20.132812 14.316406 -21.0625 12.546875 -21.0625 C 10.671875 -21.0625 9.238281 -20.148438 8.25 -18.328125 C 7.269531 -16.515625 6.78125 -13.882812 6.78125 -10.4375 C 6.78125 -7.1875 7.265625 -4.707031 8.234375 -3 C 9.210938 -1.300781 10.617188 -0.453125 12.453125 -0.453125 C 14.285156 -0.453125 15.6875 -1.304688 16.65625 -3.015625 C 17.625 -4.734375 18.109375 -7.238281 18.109375 -10.53125 Z M 18.109375 -10.53125 "/></g></g></g><g fill="#13294a" fill-opacity="1"><g transform="translate(261.722309, 270.026437)"><g><path d="M 31.390625 -20.828125 C 30.328125 -20.722656 29.59375 -20.039062 29.1875 -18.78125 L 22.78125 0.484375 L 21.921875 0.484375 L 16.453125 -14.78125 L 10.5 0.484375 L 9.59375 0.484375 L 2.8125 -18.78125 C 2.539062 -19.570312 2.273438 -20.082031 2.015625 -20.3125 C 1.753906 -20.550781 1.285156 -20.722656 0.609375 -20.828125 L 0.609375 -21.625 L 10.015625 -21.625 L 10.015625 -20.828125 C 9.179688 -20.765625 8.628906 -20.640625 8.359375 -20.453125 C 8.097656 -20.273438 7.96875 -19.953125 7.96875 -19.484375 C 7.96875 -19.253906 8.039062 -18.90625 8.1875 -18.4375 L 12.03125 -6.78125 L 15.8125 -16.640625 L 14.6875 -19.71875 C 14.363281 -20.394531 13.597656 -20.765625 12.390625 -20.828125 L 12.390625 -21.625 L 22.375 -21.625 L 22.375 -20.828125 L 21.953125 -20.796875 C 21.242188 -20.753906 20.75 -20.644531 20.46875 -20.46875 C 20.195312 -20.300781 20.0625 -20.023438 20.0625 -19.640625 C 20.0625 -19.410156 20.210938 -18.816406 20.515625 -17.859375 L 23.96875 -7.109375 L 27.546875 -18.078125 C 27.703125 -18.503906 27.78125 -18.953125 27.78125 -19.421875 C 27.78125 -19.910156 27.625 -20.253906 27.3125 -20.453125 C 27 -20.660156 26.414062 -20.785156 25.5625 -20.828125 L 25.5625 -21.625 L 31.390625 -21.625 Z M 31.390625 -20.828125 "/></g></g></g><g fill="#13294a" fill-opacity="1"><g transform="translate(78.988426, 291.426416)"><g><path d="M 6.289062 -1.871094 L 5.597656 -1.871094 C 5.382812 -1.476562 5.085938 -1.152344 4.707031 -0.917969 C 4.328125 -0.675781 3.90625 -0.558594 3.457031 -0.558594 C 2.78125 -0.558594 2.203125 -0.800781 1.726562 -1.304688 C 1.261719 -1.78125 1.035156 -2.367188 1.035156 -3.050781 C 1.035156 -3.734375 1.261719 -4.320312 1.726562 -4.804688 C 1.945312 -5.03125 2.203125 -5.210938 2.503906 -5.347656 C 2.789062 -5.480469 3.078125 -5.554688 3.367188 -5.554688 C 3.644531 -5.554688 3.886719 -5.515625 4.105469 -5.453125 C 4.761719 -5.257812 5.257812 -4.859375 5.589844 -4.257812 L 6.28125 -4.257812 C 6.046875 -4.832031 5.679688 -5.300781 5.164062 -5.660156 C 4.644531 -6.019531 4.078125 -6.199219 3.457031 -6.199219 C 2.601562 -6.199219 1.882812 -5.886719 1.285156 -5.265625 C 1.007812 -4.976562 0.792969 -4.636719 0.640625 -4.257812 C 0.476562 -3.878906 0.40625 -3.472656 0.40625 -3.050781 C 0.40625 -2.1875 0.691406 -1.457031 1.285156 -0.847656 C 1.882812 -0.214844 2.601562 0.0898438 3.457031 0.0898438 C 4.078125 0.0898438 4.644531 -0.0898438 5.175781 -0.449219 C 5.6875 -0.808594 6.058594 -1.277344 6.289062 -1.871094 Z M 6.289062 -1.871094 "/></g></g></g><g fill="#13294a" fill-opacity="1"><g transform="translate(92.749456, 291.426416)"><g><path d="M 6.066406 -3.078125 C 6.066406 -2.375 5.8125 -1.78125 5.328125 -1.296875 C 4.832031 -0.800781 4.238281 -0.558594 3.546875 -0.558594 C 2.851562 -0.558594 2.257812 -0.800781 1.773438 -1.296875 C 1.277344 -1.78125 1.035156 -2.375 1.035156 -3.078125 C 1.035156 -3.761719 1.277344 -4.355469 1.773438 -4.851562 C 2.257812 -5.335938 2.851562 -5.589844 3.546875 -5.589844 C 4.238281 -5.589844 4.832031 -5.335938 5.328125 -4.851562 C 5.8125 -4.355469 6.066406 -3.761719 6.066406 -3.078125 Z M 6.695312 -3.078125 C 6.695312 -3.511719 6.605469 -3.914062 6.445312 -4.300781 C 6.28125 -4.679688 6.058594 -5.011719 5.769531 -5.300781 C 5.480469 -5.578125 5.148438 -5.804688 4.769531 -5.96875 C 4.382812 -6.128906 3.976562 -6.21875 3.546875 -6.21875 C 3.113281 -6.21875 2.699219 -6.128906 2.320312 -5.96875 C 1.945312 -5.804688 1.609375 -5.578125 1.324219 -5.300781 C 1.035156 -5.011719 0.808594 -4.679688 0.648438 -4.300781 C 0.484375 -3.914062 0.40625 -3.511719 0.40625 -3.078125 C 0.40625 -2.644531 0.484375 -2.230469 0.648438 -1.855469 C 0.808594 -1.46875 1.035156 -1.132812 1.324219 -0.847656 C 1.609375 -0.558594 1.945312 -0.332031 2.320312 -0.171875 C 2.699219 -0.0078125 3.113281 0.0703125 3.546875 0.0703125 C 3.976562 0.0703125 4.382812 -0.0078125 4.769531 -0.171875 C 5.148438 -0.332031 5.480469 -0.558594 5.769531 -0.847656 C 6.058594 -1.132812 6.28125 -1.46875 6.445312 -1.855469 C 6.605469 -2.230469 6.695312 -2.644531 6.695312 -3.078125 Z M 6.695312 -3.078125 "/></g></g></g><g fill="#13294a" fill-opacity="1"><g transform="translate(107.050486, 291.426416)"><g><path d="M 6.316406 0 L 6.957031 0 L 5.535156 -6.523438 L 3.527344 -1.285156 L 1.519531 -6.523438 L 0.0898438 0 L 0.738281 0 L 1.683594 -4.355469 L 3.527344 0.359375 L 5.363281 -4.355469 Z M 6.316406 0 "/></g></g></g><g fill="#13294a" fill-opacity="1"><g transform="translate(121.297524, 291.426416)"><g><path d="M 6.316406 0 L 6.957031 0 L 5.535156 -6.523438 L 3.527344 -1.285156 L 1.519531 -6.523438 L 0.0898438 0 L 0.738281 0 L 1.683594 -4.355469 L 3.527344 0.359375 L 5.363281 -4.355469 Z M 6.316406 0 "/></g></g></g><g fill="#13294a" fill-opacity="1"><g transform="translate(135.544559, 291.426416)"><g><path d="M 5.101562 -2.023438 L 5.101562 -6.121094 L 4.472656 -6.121094 L 4.472656 -1.933594 C 4.472656 -1.683594 4.429688 -1.476562 4.339844 -1.304688 C 4.078125 -0.800781 3.574219 -0.550781 2.824219 -0.550781 C 2.339844 -0.550781 1.953125 -0.65625 1.664062 -0.871094 C 1.332031 -1.117188 1.171875 -1.46875 1.171875 -1.933594 L 1.171875 -6.121094 L 0.539062 -6.121094 L 0.539062 -2.023438 C 0.539062 -1.359375 0.757812 -0.835938 1.1875 -0.460938 C 1.59375 -0.0976562 2.140625 0.0820312 2.824219 0.0820312 C 3.5 0.0820312 4.039062 -0.0976562 4.453125 -0.460938 C 4.886719 -0.835938 5.101562 -1.359375 5.101562 -2.023438 Z M 5.101562 -2.023438 "/></g></g></g><g fill="#13294a" fill-opacity="1"><g transform="translate(148.387577, 291.426416)"><g><path d="M 1.304688 -4.507812 L 4.742188 0.378906 L 4.742188 -6.121094 L 4.113281 -6.121094 L 4.113281 -1.621094 L 0.675781 -6.507812 L 0.675781 0 L 1.304688 0 Z M 1.304688 -4.507812 "/></g></g></g><g fill="#13294a" fill-opacity="1"><g transform="translate(161.005593, 291.426416)"><g><path d="M 1.304688 0 L 1.304688 -6.121094 L 0.675781 -6.121094 L 0.675781 0 Z M 1.304688 0 "/></g></g></g><g fill="#13294a" fill-opacity="1"><g transform="translate(170.185591, 291.426416)"><g><path d="M 0.179688 -5.554688 L 1.664062 -5.554688 L 1.664062 -0.0195312 L 2.296875 -0.0195312 L 2.296875 -5.554688 L 3.78125 -5.554688 L 3.78125 -6.136719 L 0.179688 -6.136719 Z M 0.179688 -5.554688 "/></g></g></g><g fill="#13294a" fill-opacity="1"><g transform="translate(181.345614, 291.426416)"><g><path d="M 3.042969 -2.878906 L 5.355469 -6.121094 L 4.554688 -6.121094 L 2.726562 -3.5 L 0.898438 -6.121094 L 0.0898438 -6.121094 L 2.410156 -2.871094 L 2.410156 0 L 3.042969 0 Z M 3.042969 -2.878906 "/></g></g></g><g fill="#13294a" fill-opacity="1"><g transform="translate(193.990645, 291.426416)"><g/></g></g><g fill="#13294a" fill-opacity="1"><g transform="translate(203.620653, 291.426416)"><g><path d="M 1.664062 -2.25 L 2.78125 -5.066406 L 3.886719 -2.25 Z M 5.464844 0 L 2.78125 -6.542969 L 0.0898438 0 L 0.773438 0 L 1.429688 -1.664062 L 4.121094 -1.664062 L 4.777344 0 Z M 5.464844 0 "/></g></g></g><g fill="#13294a" fill-opacity="1"><g transform="translate(216.37368, 291.426416)"><g><path d="M 1.304688 -4.507812 L 4.742188 0.378906 L 4.742188 -6.121094 L 4.113281 -6.121094 L 4.113281 -1.621094 L 0.675781 -6.507812 L 0.675781 0 L 1.304688 0 Z M 1.304688 -4.507812 "/></g></g></g><g fill="#13294a" fill-opacity="1"><g transform="translate(228.991703, 291.426416)"><g><path d="M 5.425781 -3.058594 C 5.425781 -3.5 5.335938 -3.90625 5.175781 -4.285156 C 5.011719 -4.660156 4.789062 -4.984375 4.507812 -5.257812 C 4.222656 -5.527344 3.886719 -5.734375 3.511719 -5.886719 C 3.121094 -6.039062 2.710938 -6.121094 2.277344 -6.121094 L 0.675781 -6.121094 L 0.675781 0 L 2.277344 0 C 2.710938 0 3.121094 -0.0703125 3.511719 -0.226562 C 3.886719 -0.378906 4.222656 -0.59375 4.507812 -0.863281 C 4.789062 -1.132812 5.011719 -1.449219 5.175781 -1.828125 C 5.335938 -2.203125 5.425781 -2.609375 5.425781 -3.058594 Z M 4.816406 -3.058594 C 4.816406 -2.359375 4.5625 -1.773438 4.078125 -1.3125 C 3.589844 -0.855469 2.996094 -0.628906 2.296875 -0.628906 L 1.304688 -0.628906 L 1.304688 -5.488281 L 2.296875 -5.488281 C 2.996094 -5.488281 3.589844 -5.257812 4.078125 -4.804688 C 4.5625 -4.339844 4.816406 -3.753906 4.816406 -3.058594 Z M 4.816406 -3.058594 "/></g></g></g><g fill="#13294a" fill-opacity="1"><g transform="translate(242.023737, 291.426416)"><g/></g></g><g fill="#13294a" fill-opacity="1"><g transform="translate(251.653745, 291.426416)"><g><path d="M 4.671875 -1.699219 C 4.671875 -2.132812 4.5625 -2.503906 4.355469 -2.789062 C 4.140625 -3.078125 3.851562 -3.277344 3.5 -3.375 C 3.707031 -3.464844 3.886719 -3.628906 4.023438 -3.871094 C 4.085938 -3.976562 4.132812 -4.085938 4.167969 -4.203125 C 4.203125 -4.320312 4.222656 -4.480469 4.222656 -4.6875 C 4.222656 -4.886719 4.167969 -5.09375 4.078125 -5.292969 C 3.808594 -5.839844 3.222656 -6.121094 2.332031 -6.121094 L 0.675781 -6.121094 L 0.675781 0 L 2.546875 0 C 3.167969 0 3.664062 -0.136719 4.039062 -0.421875 C 4.230469 -0.566406 4.382812 -0.757812 4.5 -0.988281 C 4.609375 -1.214844 4.671875 -1.449219 4.671875 -1.699219 Z M 3.589844 -4.589844 C 3.589844 -4.257812 3.492188 -4.015625 3.292969 -3.851562 C 3.097656 -3.691406 2.835938 -3.609375 2.511719 -3.609375 L 1.304688 -3.609375 L 1.304688 -5.515625 L 2.332031 -5.515625 C 3.167969 -5.515625 3.589844 -5.203125 3.589844 -4.589844 Z M 4.039062 -1.828125 C 4.039062 -1.457031 3.914062 -1.160156 3.664062 -0.9375 C 3.421875 -0.710938 3.105469 -0.601562 2.726562 -0.601562 L 1.304688 -0.601562 L 1.304688 -2.980469 L 2.824219 -2.980469 C 3.140625 -2.980469 3.421875 -2.871094 3.664062 -2.65625 C 3.769531 -2.554688 3.859375 -2.4375 3.933594 -2.304688 C 4.003906 -2.160156 4.039062 -2.007812 4.039062 -1.828125 Z M 4.039062 -1.828125 "/></g></g></g><g fill="#13294a" fill-opacity="1"><g transform="translate(263.70477, 291.426416)"><g><path d="M 1.304688 -0.628906 L 1.304688 -6.121094 L 0.675781 -6.121094 L 0.675781 0 L 3.492188 0 L 3.492188 -0.628906 Z M 1.304688 -0.628906 "/></g></g></g><g fill="#13294a" fill-opacity="1"><g transform="translate(274.576792, 291.426416)"><g><path d="M 6.066406 -3.078125 C 6.066406 -2.375 5.8125 -1.78125 5.328125 -1.296875 C 4.832031 -0.800781 4.238281 -0.558594 3.546875 -0.558594 C 2.851562 -0.558594 2.257812 -0.800781 1.773438 -1.296875 C 1.277344 -1.78125 1.035156 -2.375 1.035156 -3.078125 C 1.035156 -3.761719 1.277344 -4.355469 1.773438 -4.851562 C 2.257812 -5.335938 2.851562 -5.589844 3.546875 -5.589844 C 4.238281 -5.589844 4.832031 -5.335938 5.328125 -4.851562 C 5.8125 -4.355469 6.066406 -3.761719 6.066406 -3.078125 Z M 6.695312 -3.078125 C 6.695312 -3.511719 6.605469 -3.914062 6.445312 -4.300781 C 6.28125 -4.679688 6.058594 -5.011719 5.769531 -5.300781 C 5.480469 -5.578125 5.148438 -5.804688 4.769531 -5.96875 C 4.382812 -6.128906 3.976562 -6.21875 3.546875 -6.21875 C 3.113281 -6.21875 2.699219 -6.128906 2.320312 -5.96875 C 1.945312 -5.804688 1.609375 -5.578125 1.324219 -5.300781 C 1.035156 -5.011719 0.808594 -4.679688 0.648438 -4.300781 C 0.484375 -3.914062 0.40625 -3.511719 0.40625 -3.078125 C 0.40625 -2.644531 0.484375 -2.230469 0.648438 -1.855469 C 0.808594 -1.46875 1.035156 -1.132812 1.324219 -0.847656 C 1.609375 -0.558594 1.945312 -0.332031 2.320312 -0.171875 C 2.699219 -0.0078125 3.113281 0.0703125 3.546875 0.0703125 C 3.976562 0.0703125 4.382812 -0.0078125 4.769531 -0.171875 C 5.148438 -0.332031 5.480469 -0.558594 5.769531 -0.847656 C 6.058594 -1.132812 6.28125 -1.46875 6.445312 -1.855469 C 6.605469 -2.230469 6.695312 -2.644531 6.695312 -3.078125 Z M 6.695312 -3.078125 "/></g></g></g><g fill="#13294a" fill-opacity="1"><g transform="translate(288.877814, 291.426416)"><g><path d="M 6.714844 -2.863281 L 3.527344 -2.863281 L 3.527344 -2.3125 L 6.011719 -2.3125 C 5.824219 -1.78125 5.507812 -1.351562 5.058594 -1.035156 C 4.609375 -0.710938 4.105469 -0.558594 3.554688 -0.558594 C 2.851562 -0.558594 2.257812 -0.800781 1.765625 -1.296875 C 1.277344 -1.789062 1.035156 -2.394531 1.035156 -3.085938 C 1.035156 -3.78125 1.277344 -4.375 1.773438 -4.867188 C 2.257812 -5.355469 2.851562 -5.605469 3.554688 -5.605469 C 4.078125 -5.605469 4.554688 -5.453125 4.976562 -5.15625 C 5.410156 -4.859375 5.714844 -4.472656 5.914062 -3.976562 L 6.578125 -3.976562 C 6.371094 -4.652344 5.984375 -5.191406 5.425781 -5.605469 C 4.867188 -6.019531 4.222656 -6.238281 3.492188 -6.238281 C 3.097656 -6.238281 2.710938 -6.148438 2.332031 -5.984375 C 1.945312 -5.824219 1.609375 -5.597656 1.324219 -5.308594 C 1.035156 -5.023438 0.808594 -4.6875 0.648438 -4.3125 C 0.484375 -3.925781 0.40625 -3.511719 0.40625 -3.078125 C 0.40625 -2.644531 0.484375 -2.230469 0.648438 -1.855469 C 0.808594 -1.46875 1.035156 -1.132812 1.324219 -0.847656 C 1.609375 -0.558594 1.945312 -0.332031 2.332031 -0.171875 C 2.710938 -0.0078125 3.121094 0.0703125 3.554688 0.0703125 C 4.292969 0.0703125 4.960938 -0.160156 5.554688 -0.640625 C 6.148438 -1.125 6.515625 -1.738281 6.652344 -2.484375 Z M 6.714844 -2.863281 "/></g></g></g><g fill="#13294a" fill-opacity="1"><g transform="translate(136.457103, 303.426401)"><g><path d="M 6.066406 -3.078125 C 6.066406 -2.375 5.8125 -1.78125 5.328125 -1.296875 C 4.832031 -0.800781 4.238281 -0.558594 3.546875 -0.558594 C 2.851562 -0.558594 2.257812 -0.800781 1.773438 -1.296875 C 1.277344 -1.78125 1.035156 -2.375 1.035156 -3.078125 C 1.035156 -3.761719 1.277344 -4.355469 1.773438 -4.851562 C 2.257812 -5.335938 2.851562 -5.589844 3.546875 -5.589844 C 4.238281 -5.589844 4.832031 -5.335938 5.328125 -4.851562 C 5.8125 -4.355469 6.066406 -3.761719 6.066406 -3.078125 Z M 6.695312 -3.078125 C 6.695312 -3.511719 6.605469 -3.914062 6.445312 -4.300781 C 6.28125 -4.679688 6.058594 -5.011719 5.769531 -5.300781 C 5.480469 -5.578125 5.148438 -5.804688 4.769531 -5.96875 C 4.382812 -6.128906 3.976562 -6.21875 3.546875 -6.21875 C 3.113281 -6.21875 2.699219 -6.128906 2.320312 -5.96875 C 1.945312 -5.804688 1.609375 -5.578125 1.324219 -5.300781 C 1.035156 -5.011719 0.808594 -4.679688 0.648438 -4.300781 C 0.484375 -3.914062 0.40625 -3.511719 0.40625 -3.078125 C 0.40625 -2.644531 0.484375 -2.230469 0.648438 -1.855469 C 0.808594 -1.46875 1.035156 -1.132812 1.324219 -0.847656 C 1.609375 -0.558594 1.945312 -0.332031 2.320312 -0.171875 C 2.699219 -0.0078125 3.113281 0.0703125 3.546875 0.0703125 C 3.976562 0.0703125 4.382812 -0.0078125 4.769531 -0.171875 C 5.148438 -0.332031 5.480469 -0.558594 5.769531 -0.847656 C 6.058594 -1.132812 6.28125 -1.46875 6.445312 -1.855469 C 6.605469 -2.230469 6.695312 -2.644531 6.695312 -3.078125 Z M 6.695312 -3.078125 "/></g></g></g><g fill="#13294a" fill-opacity="1"><g transform="translate(150.758132, 303.426401)"><g><path d="M 4.3125 -5.535156 L 4.3125 -6.121094 L 0.675781 -6.121094 L 0.675781 0 L 1.304688 0 L 1.304688 -2.761719 L 4.222656 -2.761719 L 4.222656 -3.355469 L 1.304688 -3.355469 L 1.304688 -5.535156 Z M 4.3125 -5.535156 "/></g></g></g><g fill="#13294a" fill-opacity="1"><g transform="translate(162.449145, 303.426401)"><g/></g></g><g fill="#13294a" fill-opacity="1"><g transform="translate(172.07915, 303.426401)"><g><path d="M 1.304688 -4.507812 L 4.742188 0.378906 L 4.742188 -6.121094 L 4.113281 -6.121094 L 4.113281 -1.621094 L 0.675781 -6.507812 L 0.675781 0 L 1.304688 0 Z M 1.304688 -4.507812 "/></g></g></g><g fill="#13294a" fill-opacity="1"><g transform="translate(184.697166, 303.426401)"><g><path d="M 1.664062 -2.25 L 2.78125 -5.066406 L 3.886719 -2.25 Z M 5.464844 0 L 2.78125 -6.542969 L 0.0898438 0 L 0.773438 0 L 1.429688 -1.664062 L 4.121094 -1.664062 L 4.777344 0 Z M 5.464844 0 "/></g></g></g><g fill="#13294a" fill-opacity="1"><g transform="translate(197.450188, 303.426401)"><g><path d="M 0.179688 -5.554688 L 1.664062 -5.554688 L 1.664062 -0.0195312 L 2.296875 -0.0195312 L 2.296875 -5.554688 L 3.78125 -5.554688 L 3.78125 -6.136719 L 0.179688 -6.136719 Z M 0.179688 -5.554688 "/></g></g></g><g fill="#13294a" fill-opacity="1"><g transform="translate(208.610206, 303.426401)"><g><path d="M 5.101562 -2.023438 L 5.101562 -6.121094 L 4.472656 -6.121094 L 4.472656 -1.933594 C 4.472656 -1.683594 4.429688 -1.476562 4.339844 -1.304688 C 4.078125 -0.800781 3.574219 -0.550781 2.824219 -0.550781 C 2.339844 -0.550781 1.953125 -0.65625 1.664062 -0.871094 C 1.332031 -1.117188 1.171875 -1.46875 1.171875 -1.933594 L 1.171875 -6.121094 L 0.539062 -6.121094 L 0.539062 -2.023438 C 0.539062 -1.359375 0.757812 -0.835938 1.1875 -0.460938 C 1.59375 -0.0976562 2.140625 0.0820312 2.824219 0.0820312 C 3.5 0.0820312 4.039062 -0.0976562 4.453125 -0.460938 C 4.886719 -0.835938 5.101562 -1.359375 5.101562 -2.023438 Z M 5.101562 -2.023438 "/></g></g></g><g fill="#13294a" fill-opacity="1"><g transform="translate(221.453224, 303.426401)"><g><path d="M 1.304688 -3.023438 L 1.304688 -5.515625 L 2.726562 -5.515625 C 3.097656 -5.515625 3.394531 -5.398438 3.617188 -5.164062 C 3.835938 -4.933594 3.949219 -4.644531 3.949219 -4.285156 C 3.949219 -3.925781 3.835938 -3.628906 3.601562 -3.382812 C 3.367188 -3.140625 3.078125 -3.023438 2.726562 -3.023438 Z M 4.582031 -4.273438 C 4.582031 -4.796875 4.382812 -5.246094 4.003906 -5.597656 C 3.636719 -5.941406 3.175781 -6.121094 2.636719 -6.121094 L 0.675781 -6.121094 L 0.675781 0 L 1.304688 0 L 1.304688 -2.421875 L 2.035156 -2.421875 L 3.835938 0 L 4.679688 0 L 2.789062 -2.421875 C 3.265625 -2.449219 3.671875 -2.617188 4.003906 -2.933594 C 4.382812 -3.285156 4.582031 -3.734375 4.582031 -4.273438 Z M 4.582031 -4.273438 "/></g></g></g><g fill="#13294a" fill-opacity="1"><g transform="translate(233.549248, 303.426401)"><g><path d="M 4.3125 0 L 4.3125 -0.585938 L 1.304688 -0.585938 L 1.304688 -2.761719 L 4.222656 -2.761719 L 4.222656 -3.355469 L 1.304688 -3.355469 L 1.304688 -5.535156 L 4.3125 -5.535156 L 4.3125 -6.121094 L 0.675781 -6.121094 L 0.675781 0 Z M 4.3125 0 "/></g></g></g></svg>