<?xml version="1.0" encoding="utf-8"?>
<!-- Generator: Adobe Illustrator 19.0.1, SVG Export Plug-In . SVG Version: 6.00 Build 0)  -->
<svg version="1.1" id="Layer_1" xmlns="http://www.w3.org/2000/svg" xmlns:xlink="http://www.w3.org/1999/xlink" x="0px" y="0px"
	 viewBox="0 0 800 800" style="enable-background:new 0 0 800 800;" xml:space="preserve">
<style type="text/css">
	.st0{fill:#FFFFFF;}
	.st1{fill:#00C300;}
</style>
<g>
	<g id="XMLID_1_">
		<g>
			<path class="st0" d="M564.2,292.2c17,23.4,25.5,49.3,25.5,77.7c0,34-13.5,65.6-40.4,94.8c-25.6,28.9-62.6,58.7-110.8,89.1
				c-26.2,16.3-42.4,24.4-48.8,24.4H387c-3,0-4.6-2.5-4.6-7.6c2.5-16.2,3.8-26.3,3.8-30.1c0-3.6-0.5-6.6-1.3-9.1
				c-0.9-2.5-3-4.5-6.5-5.9c-3.4-1.4-6.8-2.5-10.1-3.2c-46.7-6.6-84.9-24.1-114.6-52.6s-44.6-61.7-44.6-99.8
				c0-28.4,8.6-54.3,25.7-77.7c17.1-23.4,40.1-42,68.9-55.8c28.8-13.8,60.9-20.8,96.2-20.8c34.5,0,66.3,6.9,95.2,20.8
				C524.2,250.3,547.1,268.9,564.2,292.2z M529.1,383.6c0.8-0.8,1.1-3.9,1.1-9.5c0-6.9-1.1-10.3-3.4-10.3h-37v-14.1h37
				c2.3,0,3.4-3.3,3.4-9.9c0-7.1-1.1-10.7-3.4-10.7c-36.8,0-55.6,0.3-56.2,0.9c-0.6,0.6-0.9,15.3-0.9,44c0,28.7,0.3,43.4,0.9,44.2
				c0.6,0.8,1.5,1.1,2.5,1.1h53.7c2.3,0,3.4-3.6,3.4-10.7c0-6.9-1.1-10.3-3.4-10.3h-37v-13.7C515.3,384.8,528.3,384.4,529.1,383.6z
				 M456.8,374.1c0-28.4-0.4-43-1.1-43.8c-0.8-0.8-1.7-1.1-2.7-1.1c-9.9,0-15.2,0.4-16,1.1c-0.8,0.8-1.1,17.9-1.1,51.4
				c-25.4-34.5-38.3-51.9-38.7-52c-0.4-0.1-0.8-0.2-1.3-0.2l-7.6-0.4c-5.8,0-9,0.4-9.5,1.1c-0.5,0.8-0.8,15.4-0.8,43.8
				c0,28.7,0.3,43.4,0.8,44.2c0.5,0.8,3.7,1.1,9.5,1.1c6.9,0,10.3-1.3,10.3-3.8v-49.5l38.8,52.6c1,0.5,3.9,0.8,8.8,0.8
				c5.6,0,8.8-0.4,9.5-1.1C456.4,417.5,456.8,402.8,456.8,374.1z M364.6,374.1c0-28.4-0.3-43-0.9-43.8c-0.6-0.8-1.5-1.1-2.5-1.1
				c-9.9,0-15.3,0.4-16.2,1.1c-0.9,0.8-1.3,15.4-1.3,43.8c0,28.7,0.4,43.4,1.3,44.2c0.9,0.8,4.1,1.1,9.7,1.1c5.3,0,8.3-0.4,9-1.1
				C364.3,417.5,364.6,402.8,364.6,374.1z M332.2,408.8c0-6.9-1.3-10.3-3.8-10.3h-35.8v-65.9c0-2.3-3.4-3.4-10.3-3.4
				c-7.1,0-10.7,1.1-10.7,3.4v83c0,2.5,1.1,3.8,3.4,3.8h53.3C330.9,419.4,332.2,415.9,332.2,408.8z"/>
			<path class="st1" d="M748.3,256c18.9,45.7,28.4,93.7,28.4,144s-9.5,98.3-28.4,144c-18.9,45.7-46.3,86.5-82.1,122.3
				c-35.8,35.8-76.5,63.2-122.3,82.1c-45.7,18.9-93.7,28.4-144,28.4s-98.3-9.5-144-28.4c-45.7-18.9-86.4-46.3-122.3-82.1
				C98,630.4,70.6,589.7,51.7,544c-18.9-45.7-28.4-93.7-28.4-144s9.5-98.3,28.4-144c18.9-45.7,46.3-86.5,82.1-122.3
				S210.3,70.6,256,51.7c45.7-18.9,93.7-28.4,144-28.4s98.3,9.5,144,28.4c45.7,18.9,86.5,46.3,122.3,82.1
				C702,169.6,729.4,210.3,748.3,256z M589.7,369.9c0-28.4-8.5-54.3-25.5-77.7c-17-23.4-40-42-68.9-55.8
				c-28.9-13.8-60.7-20.8-95.2-20.8c-35.3,0-67.4,6.9-96.2,20.8c-28.8,13.8-51.8,32.4-68.9,55.8c-17.1,23.4-25.7,49.3-25.7,77.7
				c0,38.1,14.8,71.4,44.6,99.8s67.9,46,114.6,52.6c3.3,0.8,6.7,1.8,10.1,3.2c3.4,1.4,5.6,3.4,6.5,5.9c0.9,2.5,1.3,5.6,1.3,9.1
				c0,3.8-1.3,13.8-3.8,30.1c0,5.1,1.5,7.6,4.6,7.6h2.7c6.3,0,22.6-8.1,48.8-24.4c48.2-30.5,85.2-60.2,110.8-89.1
				C576.2,435.5,589.7,403.9,589.7,369.9z"/>
			<path class="st1" d="M530.3,374.1c0,5.6-0.4,8.8-1.1,9.5s-13.8,1.1-39.2,1.1v13.7h37c2.3,0,3.4,3.4,3.4,10.3
				c0,7.1-1.1,10.7-3.4,10.7h-53.7c-1,0-1.8-0.4-2.5-1.1c-0.6-0.8-0.9-15.5-0.9-44.2c0-28.7,0.3-43.4,0.9-44
				c0.6-0.6,19.4-0.9,56.2-0.9c2.3,0,3.4,3.6,3.4,10.7c0,6.6-1.1,9.9-3.4,9.9h-37v14.1h37C529.1,363.8,530.3,367.3,530.3,374.1z"/>
			<path class="st1" d="M455.6,330.3c0.8,0.8,1.1,15.4,1.1,43.8c0,28.7-0.4,43.4-1.1,44.2c-0.8,0.8-3.9,1.1-9.5,1.1
				c-4.8,0-7.7-0.3-8.8-0.8l-38.8-52.6v49.5c0,2.5-3.4,3.8-10.3,3.8c-5.8,0-9-0.4-9.5-1.1c-0.5-0.8-0.8-15.5-0.8-44.2
				c0-28.4,0.3-43,0.8-43.8c0.5-0.8,3.7-1.1,9.5-1.1l7.6,0.4c0.5,0,1,0.1,1.3,0.2c0.4,0.1,13.3,17.5,38.7,52
				c0-33.5,0.4-50.7,1.1-51.4c0.8-0.8,6.1-1.1,16-1.1C454,329.2,454.8,329.5,455.6,330.3z"/>
			<path class="st1" d="M363.6,330.3c0.6,0.8,0.9,15.4,0.9,43.8c0,28.7-0.3,43.4-0.9,44.2c-0.6,0.8-3.6,1.1-9,1.1
				c-5.6,0-8.8-0.4-9.7-1.1c-0.9-0.8-1.3-15.5-1.3-44.2c0-28.4,0.4-43,1.3-43.8c0.9-0.8,6.3-1.1,16.2-1.1
				C362.2,329.2,363,329.5,363.6,330.3z"/>
			<path class="st1" d="M328.4,398.5c2.5,0,3.8,3.4,3.8,10.3c0,7.1-1.3,10.7-3.8,10.7h-53.3c-2.3,0-3.4-1.3-3.4-3.8v-83
				c0-2.3,3.6-3.4,10.7-3.4c6.9,0,10.3,1.1,10.3,3.4v65.9H328.4z"/>
		</g>
		<g>
		</g>
	</g>
</g>
</svg>
